<svg width="68" height="32" viewBox="0 0 68 32" fill="none" xmlns="http://www.w3.org/2000/svg">
<path fill-rule="evenodd" clip-rule="evenodd" d="M51.4815 12.574C51.2575 11.1561 50.4434 10.4363 48.8951 10.4363H44.4335C42.8865 10.4363 42.0722 11.1561 41.8475 12.574C41.8271 12.7393 41.8066 12.9234 41.8066 13.0879V21.5377H44.5973V14.0595C44.5973 13.4823 44.7983 13.2524 45.342 13.2524H47.991C48.479 13.2524 48.7323 13.4823 48.7323 14.0595V21.5377H51.523V13.0879C51.523 12.9234 51.5016 12.7393 51.4815 12.574Z" fill="#E0E0E2"/>
<path fill-rule="evenodd" clip-rule="evenodd" d="M37.7954 21.5375H40.5853V10.436H37.7954V21.5375Z" fill="#E0E0E2"/>
<path fill-rule="evenodd" clip-rule="evenodd" d="M32.6786 6.42261H29.8882V21.5458H32.6786V13.261H35.3518V10.4444H32.6786V6.42261Z" fill="#E0E0E2"/>
<path fill-rule="evenodd" clip-rule="evenodd" d="M25.897 21.5374H28.687V6.41455H25.897V21.5374Z" fill="#E0E0E2"/>
<path fill-rule="evenodd" clip-rule="evenodd" d="M9.75487 13.1904C9.75487 13.0469 9.73453 12.8827 9.71346 12.7383C9.57082 11.5462 8.83765 10.724 7.7792 10.4977C7.61609 10.4566 7.43295 10.4361 7.24975 10.4361H2.78899V6.41455H0L0.00561972 21.5407L7.20913 21.5375C8.22696 21.5375 8.85775 21.1676 9.38841 20.2219C9.63252 19.8105 9.75487 19.3384 9.75487 18.7415V13.1904ZM6.23113 13.2528C6.65251 13.2528 6.96423 13.459 6.96423 14.0539V17.9143C6.96423 18.4069 6.70834 18.7166 6.22044 18.7166H2.78899V14.0337C2.78899 13.4945 3.05228 13.2528 3.58373 13.2528H6.23113Z" fill="#E0E0E2"/>
<path fill-rule="evenodd" clip-rule="evenodd" d="M17.9019 17.9145C17.9019 18.4917 17.7011 18.7215 17.1574 18.7215H14.5083C14.0204 18.7215 13.7672 18.4917 13.7672 17.9145V10.4363H10.9766V18.8861C10.9766 19.0505 10.9978 19.2347 11.018 19.4001C11.2419 20.8179 12.0558 21.5377 13.6043 21.5377H18.0658C19.6131 21.5377 20.4272 20.8179 20.652 19.4001C20.6723 19.2347 20.6926 19.0505 20.6926 18.8861V10.4363H17.9019V17.9145Z" fill="#E0E0E2"/>
<path fill-rule="evenodd" clip-rule="evenodd" d="M21.9146 21.5566H24.7044V10.4548H21.9146V21.5566Z" fill="#E0E0E2"/>
<mask id="mask0_1597_216619" style="mask-type:alpha" maskUnits="userSpaceOnUse" x="38" y="1" width="30" height="31">
<path fill-rule="evenodd" clip-rule="evenodd" d="M38.4736 1V6.38141H40.3465V2.91203H66.1276V29.2805H40.3465V25.7596H38.4736V31.1925H67.9999V1H38.4736Z" fill="black"/>
</mask>
<g mask="url(#mask0_1597_216619)">
<path fill-rule="evenodd" clip-rule="evenodd" d="M38.4736 1V6.38141H40.3465V2.91203H66.1276V29.2805H40.3465V25.7596H38.4736V31.1925H67.9999V1H38.4736Z" fill="#E0E0E2"/>
</g>
</svg>
