<svg width="45" height="32" viewBox="0 0 45 32" fill="none" xmlns="http://www.w3.org/2000/svg">
<g clip-path="url(#clip0_1846_165970)">
<path d="M22.4401 0.000244141C29.8095 0.000244141 37.1788 0.000244141 44.5482 0.000244141C44.8319 0.000244141 44.8548 0.0230672 44.8548 0.305503C44.8548 10.7705 44.8548 21.2357 44.8548 31.7007C44.8548 31.973 44.8278 32.0002 44.5592 32.0002C29.8046 32.0002 15.0498 32.0002 0.295247 32.0002C0.0167747 32.0002 -0.000976562 31.9825 -0.000976562 31.7042C-0.000976562 21.2339 -0.000976562 10.7635 -0.000976562 0.29314C-0.000976562 0.0225917 0.0220049 0.000244141 0.30016 0.000244141C7.68007 0.000244141 15.0601 0.000244141 22.4401 0.000244141ZM22.4247 1.13014C15.3985 1.13014 8.37221 1.13014 1.34606 1.13014C1.19686 1.13014 1.12216 1.20575 1.12195 1.35695C1.12195 11.1144 1.12211 20.8719 1.12084 30.6294C1.12084 30.919 1.1519 30.8778 1.37601 30.8778C15.4126 30.8778 29.4492 30.8778 43.4859 30.8778C43.6465 30.8778 43.7268 30.7965 43.7268 30.6339C43.7268 20.8816 43.7268 11.1295 43.7274 1.37724C43.7274 1.13141 43.7334 1.12919 43.4716 1.12919C36.4559 1.1303 29.4402 1.12999 22.4247 1.12999V1.13014Z" fill="white"/>
<path d="M14.5222 7.78621C14.5752 7.83486 14.6142 7.86973 14.6522 7.90555C14.7514 7.99906 14.8483 8.09495 14.95 8.18577C15.0163 8.24489 15.0362 8.30242 15.0026 8.39197C14.8937 8.68201 14.7933 8.97522 14.6917 9.26796C14.5565 9.65786 14.4248 10.049 14.2888 10.4388C14.2179 10.6418 14.1398 10.8424 14.0672 11.045C14.0487 11.0967 14.0384 11.1512 14.0208 11.2174H14.4695C14.5424 11.0845 14.6215 10.9439 14.6971 10.8014C14.8806 10.4556 15.1083 10.1378 15.3611 9.84282C15.596 9.56878 15.8539 9.30965 16.1284 9.07555C16.3948 8.84843 16.6879 8.65174 17.0011 8.48611C17.2825 8.33729 17.5721 8.21477 17.8788 8.13204C18.0974 8.07308 18.3126 8.00366 18.5445 8.0054C18.7225 8.00667 18.9006 7.97671 19.0788 7.97671C19.4379 7.97671 19.7891 8.03726 20.1349 8.13394C20.4928 8.23379 20.8375 8.36883 21.156 8.55791C21.4554 8.73574 21.737 8.93956 21.986 9.18982C22.2079 9.41298 22.4214 9.64153 22.5978 9.90114C22.7525 10.1289 22.9081 10.3571 23.0056 10.6191C23.0748 10.8055 23.1626 10.9848 23.2344 11.1704C23.3465 11.4598 23.4238 11.7579 23.4818 12.0641C23.5555 12.4524 23.6248 12.8406 23.6308 13.2355C23.6356 13.5465 23.6375 13.8598 23.6037 14.1681C23.5741 14.4382 23.5361 14.7087 23.4842 14.9777C23.3848 15.4942 23.2208 15.984 23.0046 16.4613C22.8846 16.7263 22.7487 16.9798 22.5889 17.2221C22.4244 17.4717 22.2391 17.703 22.0389 17.9258C21.8487 18.1376 21.6395 18.3244 21.4233 18.5072C21.0628 18.8123 20.6629 19.0507 20.2399 19.2578C19.7802 19.4829 19.2968 19.6363 18.802 19.7544C18.6167 19.7986 18.4194 19.791 18.2319 19.8287C17.8878 19.898 17.5411 19.8932 17.1941 19.8883C16.9675 19.885 16.7392 19.882 16.515 19.8531C16.2871 19.8239 16.0617 19.7693 15.8377 19.7151C15.5196 19.6382 15.2065 19.5444 14.9145 19.3911C14.8925 19.3795 14.8663 19.3759 14.8297 19.3646C14.8267 19.4212 14.8219 19.4662 14.8221 19.5114C14.8235 20.5039 14.8194 21.4964 14.8308 22.4887C14.8345 22.8062 14.9958 23.0556 15.2524 23.2452C15.4979 23.4263 15.791 23.465 16.0745 23.5298C16.259 23.5722 16.4476 23.5982 16.6354 23.624C16.7126 23.6346 16.7923 23.6257 16.8879 23.6257C16.9028 23.8218 16.8954 24.0082 16.8923 24.2041H10.503V23.6351C10.6374 23.6124 10.7731 23.5902 10.9084 23.5665C11.2042 23.5146 11.5047 23.4809 11.78 23.3485C12.0345 23.2262 12.212 23.036 12.2634 22.7524C12.3003 22.5489 12.3417 22.3419 12.342 22.1365C12.3468 18.5888 12.3455 15.0411 12.3453 11.4934C12.3453 11.2114 12.3059 10.9328 12.2242 10.6649C12.1615 10.4589 12.0133 10.3031 11.8261 10.1972C11.5576 10.0452 11.2696 9.94536 10.9617 9.90479C10.8141 9.88529 10.668 9.85534 10.5005 9.82649C10.4887 9.65342 10.4935 9.47258 10.4984 9.28714C11.2346 9.18602 11.9442 9.04005 12.6259 8.78931C13.3009 8.54111 13.9366 8.21018 14.5227 7.78589L14.5222 7.78621ZM14.8253 15.8651C14.8259 15.8862 14.8267 15.9073 14.8273 15.9285C14.838 16.0916 14.831 16.2583 14.8633 16.417C14.9199 16.6932 14.9858 16.9696 15.0746 17.237C15.2465 17.7542 15.5307 18.2026 15.9675 18.5389C16.1023 18.6425 16.2485 18.7413 16.4048 18.8044C16.706 18.9261 17.0204 19.002 17.351 19.0044C17.6553 19.0066 17.9555 18.982 18.2503 18.911C18.535 18.8424 18.8047 18.7367 19.0645 18.5945C19.4631 18.3764 19.7924 18.0846 20.0681 17.7298C20.3576 17.3567 20.561 16.9365 20.7125 16.4908C20.7621 16.3447 20.8144 16.1982 20.8464 16.0478C20.9009 15.7919 20.9463 15.5343 20.9832 15.2744C21.0195 15.0189 21.0437 14.7642 21.0545 14.5082C21.0762 13.993 21.0403 13.4807 20.9414 12.9737C20.9032 12.778 20.875 12.5798 20.8279 12.3863C20.7367 12.0126 20.5906 11.659 20.4271 11.3109C20.228 10.8873 19.9438 10.53 19.5929 10.2292C19.2602 9.94394 18.8708 9.76103 18.4354 9.68654C18.3384 9.6699 18.236 9.67545 18.1427 9.64835C17.9235 9.58479 17.6956 9.5981 17.4859 9.63503C17.1505 9.69415 16.818 9.78021 16.5143 9.96296C16.1506 10.1818 15.8453 10.4573 15.5754 10.7797C15.3423 11.0583 15.1763 11.3775 15.0245 11.7026C14.9159 11.9349 14.8338 12.1866 14.8316 12.4439C14.8218 13.5842 14.8261 14.7247 14.8253 15.8653V15.8651Z" fill="white"/>
<path d="M25.0739 12.1093C25.0509 11.9502 25.0704 11.7823 25.0615 11.5966C25.1405 11.5729 25.22 11.5427 25.3021 11.5257C25.5078 11.4829 25.7145 11.4452 25.9212 11.4073C26.0686 11.3802 26.2198 11.3677 26.3634 11.3276C26.5804 11.2672 26.7912 11.1843 27.0067 11.1184C27.4104 10.9949 27.7981 10.8307 28.1693 10.6332C28.4629 10.477 28.7401 10.2899 29.0248 10.1165C29.0473 10.1029 29.0703 10.0901 29.1007 10.0725C29.2524 10.2143 29.4061 10.3562 29.5575 10.5006C29.6206 10.5608 29.5982 10.6431 29.583 10.7092C29.5085 11.0296 29.4199 11.3469 29.3451 11.6674C29.2824 11.9364 29.234 12.2087 29.1754 12.4786C29.138 12.6505 29.0945 12.8214 29.0516 12.9921C29.0343 13.0607 29.0077 13.127 28.9912 13.1956C28.9633 13.3111 28.9394 13.4278 28.915 13.5441C28.9069 13.5828 28.9024 13.6224 28.8947 13.6724H29.5031C29.6664 13.3544 29.8274 13.0336 29.9951 12.7163C30.2076 12.3137 30.4405 11.9229 30.7173 11.5607C30.86 11.3742 31.0012 11.1838 31.1646 11.0165C31.3946 10.781 31.6563 10.5819 31.9401 10.4109C32.1959 10.2568 32.4746 10.1665 32.7619 10.1156C33.0334 10.0674 33.3116 10.0327 33.5894 10.0913C33.6647 10.1072 33.7417 10.124 33.8179 10.1238C34.0102 10.1235 34.1666 10.2348 34.3511 10.2736V12.7371C34.3012 12.7263 34.2514 12.722 34.2067 12.7051C33.9226 12.597 33.6369 12.5074 33.3309 12.4669C33.0488 12.4294 32.7684 12.3989 32.4863 12.4191C32.2598 12.4355 32.0314 12.444 31.8086 12.5049C31.3035 12.6428 30.853 12.8747 30.4668 13.2327C30.2067 13.4739 29.9957 13.7549 29.8339 14.0637C29.6811 14.3555 29.563 14.6655 29.4957 14.9953C29.4123 15.4041 29.3897 15.8144 29.3897 16.2285C29.3897 17.4006 29.3893 18.5728 29.3901 19.7449C29.3901 19.9191 29.3795 20.0953 29.4019 20.2668C29.4461 20.6057 29.5884 20.8865 29.9155 21.0478C30.1785 21.1773 30.4582 21.2371 30.7438 21.2811C30.9267 21.3094 31.1096 21.3377 31.3039 21.3677V21.9311H25.0636V21.3604C25.2048 21.3339 25.3387 21.2987 25.4747 21.2856C25.7074 21.2631 25.938 21.2206 26.1567 21.1479C26.3857 21.0718 26.6122 20.965 26.736 20.7326C26.8211 20.5727 26.8794 20.4018 26.8973 20.2205C26.9076 20.1156 26.9121 20.0097 26.9121 19.9043C26.9129 17.8452 26.914 15.786 26.9107 13.7269C26.9103 13.5291 26.9029 13.3265 26.8604 13.1347C26.7751 12.7507 26.5609 12.4649 26.1642 12.3469C26.0003 12.2981 25.8416 12.2283 25.6754 12.1925C25.4844 12.1514 25.2877 12.1377 25.074 12.1094L25.0739 12.1093Z" fill="white"/>
<path d="M14.8252 15.8652C14.8258 15.8859 14.8266 15.9065 14.8272 15.9273C14.8266 15.9067 14.8258 15.886 14.8252 15.8652Z" fill="#797979"/>
</g>
<defs>
<clipPath id="clip0_1846_165970">
<rect width="44.8559" height="32" fill="white" transform="translate(-0.000976562 0.000244141)"/>
</clipPath>
</defs>
</svg>
